<svg xmlns="http://www.w3.org/2000/svg" xmlns:xlink="http://www.w3.org/1999/xlink"
    viewBox="-12.24051 -12.24049 124.48099 124.481" version="1.1" x="0px" y="0px">

    <g fill="#FFFFFF" stroke="none" stroke-width="1" fill-rule="evenodd">
        <g transform="translate(-450.000000, -150.000000)">
            <g
                transform="translate(500.000000, 200.000000) rotate(20.000000) translate(-500.000000, -200.000000) translate(453.000000, 153.000000)">
                <path
                    d="M47,94 C72.9573832,94 94,72.9573832 94,47 C94,21.0426168 72.9573832,0 47,0 C21.0426168,0 0,21.0426168 0,47 C0,72.9573832 21.0426168,94 47,94 Z M47,91 C71.300529,91 91,71.300529 91,47 C91,22.699471 71.300529,3 47,3 C22.699471,3 3,22.699471 3,47 C3,71.300529 22.699471,91 47,91 Z" />
                <g transform="translate(9.000000, 46.000000)">
                    <path
                        d="M75.1731206,6.67995894 C75.2322726,6.21747124 74.963959,5.77547907 74.5263576,5.61454792 C64.8879251,2.06994331 52.6670263,0 37.5906274,0 C22.5142286,0 10.2933298,2.06994331 0.654897249,5.61454792 C0.217295843,5.77547907 -0.0510176856,6.21747124 0.00813423248,6.67995894 C2.58611814,26.8362935 16.4873734,40 37.5906274,40 C58.6938815,40 72.5951367,26.8362935 75.1731206,6.67995894 Z M63.5736889,27.8765604 C57.3775239,34.324596 48.5202622,38 37.5906274,38 C26.6605896,38 17.8030777,34.3243249 11.6068805,27.875847 C11.8791266,27.4613332 12.2481622,26.9443381 12.7179341,26.3491792 C13.9663005,24.7676105 15.5081651,23.1892485 17.3603817,21.7171421 C22.6428117,17.5187676 29.3549962,15 37.5900504,15 C45.8251046,15 52.5372892,17.5187676 57.8197192,21.7171421 C59.6719358,23.1892485 61.2138004,24.7676105 62.4621668,26.3491792 C62.9322082,26.9446796 63.3013977,27.4619265 63.5736889,27.8765604 L63.5736889,27.8765604 Z" />
                </g>
                <g transform="translate(18.000000, 27.000000)">
                    <path
                        d="M18,13 C18,5.88554882 14.0763008,0 9,0 C3.92369921,0 0,5.88554882 0,13 C0,13.6091694 0.0286999716,14.2132384 0.0855317509,14.8092143 C0.198805802,15.9970814 1.92252399,16.0241419 2.07302954,14.8404159 C2.57218308,10.9145737 5.53577154,8 9,8 C12.4642285,8 15.4278169,10.9145737 15.9269705,14.8404159 C16.077476,16.0241419 17.8011942,15.9970814 17.9144682,14.8092143 C17.9713,14.2132384 18,13.6091694 18,13 Z" />
                </g>
                <g transform="translate(58.000000, 27.000000)">
                    <path
                        d="M18,13 C18,5.88554882 14.0763008,0 9,0 C3.92369921,0 0,5.88554882 0,13 C0,13.6091694 0.0286999716,14.2132384 0.0855317509,14.8092143 C0.198805802,15.9970814 1.92252399,16.0241419 2.07302954,14.8404159 C2.57218308,10.9145737 5.53577154,8 9,8 C12.4642285,8 15.4278169,10.9145737 15.9269705,14.8404159 C16.077476,16.0241419 17.8011942,15.9970814 17.9144682,14.8092143 C17.9713,14.2132384 18,13.6091694 18,13 Z" />
                </g>
            </g>
        </g>
    </g>
</svg>
