<svg xmlns="http://www.w3.org/2000/svg" data-name="Calque 1"
    viewBox="28.276573181152344 26.839569091796875 43.44342803955078 46.410423278808594" x="0px" y="0px">
    <path
        d="M71.72,43.9a12.89,12.89,0,0,0-2.87-8.06A13,13,0,0,0,68.29,28a1.73,1.73,0,0,0-1.09-1c-.7-.24-3.35-.69-8.75,2.81a26.1,26.1,0,0,0-7.12-.86,26.13,26.13,0,0,0-7.13.86c-5.54-3.58-8.42-3-9-2.83A1.75,1.75,0,0,0,34.11,28a13,13,0,0,0-.58,7.82,12.22,12.22,0,0,0-2.86,8.12C30.67,55,37,58.34,42.8,59.52a9.38,9.38,0,0,0-.61,2.27,1,1,0,0,0,0,.25V65.1c-5.28.44-6.41-2.65-6.52-3a2.34,2.34,0,0,0-.09-.24,8.85,8.85,0,0,0-5-4.45,1.75,1.75,0,0,0-1.11,3.32,5.29,5.29,0,0,1,2.84,2.43c.7,2.27,3.56,5.86,9.86,5.46v2.88a1.75,1.75,0,0,0,3.5,0V62.17a5,5,0,0,1,1.27-2.73,1.74,1.74,0,0,0-1-3c-6.1-.71-11.74-2.72-11.74-12.57a8.6,8.6,0,0,1,2.56-6.42,1.86,1.86,0,0,0,.4-1.86,8.67,8.67,0,0,1-.11-5.3,15.21,15.21,0,0,1,5.91,2.77,1.79,1.79,0,0,0,1.54.21,21.63,21.63,0,0,1,6.86-.93,21.56,21.56,0,0,1,6.85.93,1.78,1.78,0,0,0,1.54-.21,15.72,15.72,0,0,1,5.66-2.75,8.85,8.85,0,0,1-.13,5.35,1.73,1.73,0,0,0,.34,1.7,9.74,9.74,0,0,1,2.63,6.51c0,9.83-5.93,11.87-11.74,12.57a1.74,1.74,0,0,0-.84,3.13c.62.47,1.34,1.79,1.34,4v7.92a1.75,1.75,0,0,0,3.5,0V63.57a10.66,10.66,0,0,0-.75-4.07C64.46,58.5,71.72,55.41,71.72,43.9Z" />
</svg>
